<svg xmlns="http://www.w3.org/2000/svg" viewBox="0 0 285.63 228" fill="none">
  <title>Arcane</title>
  <g transform="translate(87.18 6.32) scale(1.1126)">
    <path d="M50 30 L84 86 L16 86 Z" stroke="#c8d5e6" stroke-width="2.6" stroke-linejoin="miter"/>
    <polygon points="31.3,63.3 68.7,63.3 70.27,65.9 29.73,65.9" fill="#6f9fd8"/>
    <circle cx="50" cy="16" r="5.5" stroke="#6f9fd8" stroke-width="2"/>
    <circle cx="50" cy="16" r="1.8" fill="#6f9fd8"/>
  </g>
  <g transform="translate(22.72 179) scale(0.4714)" fill="#e4eaf0"><path transform="translate(0 0)" d="M0.50 0L26.10-70L38.50-70L64.10 0L50.30 0L44.60-15.50L20-15.50L14.30 0L0.50 0M23.10-26.70L41.60-26.70L32.30-53.30L32.10-53.30"/><path transform="translate(88.6 0)" d="M54.30-31.10L61.50-23.20L61.50 0L47.90 0L47.90-20.10L41.90-26.80L20.10-26.80L20.10 0L6.50 0L6.50-70L50.40-70L61.10-59.20L61.10-38L54.30-31.10M20.10-58.60L20.10-38L44.20-38L47.70-41.50L47.70-55.10L44.20-58.60"/><path transform="translate(180.1 0)" d="M17 0L5.50-11.50L5.50-58.50L17-70L51.20-70L62.50-58.70L62.50-48L48.90-48L48.90-53.70L44.20-58.40L24.20-58.40L19.10-53.30L19.10-16.70L24.20-11.60L44.20-11.60L48.90-16.30L48.90-22L62.50-22L62.50-11.30L51.20 0"/><path transform="translate(269.6 0)" d="M0.50 0L26.10-70L38.50-70L64.10 0L50.30 0L44.60-15.50L20-15.50L14.30 0L0.50 0M23.10-26.70L41.60-26.70L32.30-53.30L32.10-53.30"/><path transform="translate(358.2 0)" d="M6.50 0L6.50-70L18.70-70L49.90-22.50L50.10-22.50L50.10-70L63.20-70L63.20 0L51 0L19.80-47.40L19.60-47.40L19.60 0"/><path transform="translate(451.9 0)" d="M6.50 0L6.50-70L57.10-70L57.10-58.50L20.10-58.50L20.10-40.80L54.20-40.80L54.20-29.50L20.10-29.50L20.10-11.50L57.10-11.50L57.10 0"/></g>
  <g transform="translate(16.63 210) scale(0.1486)" fill="#6c8aac"><path transform="translate(0 0)" d="M30.80 1Q20.80 1 15-4.60Q9.20-10.20 9.20-20L9.20-53Q9.20-62.80 15-68.40Q20.80-74 30.80-74Q40.60-74 46.40-68.35Q52.20-62.70 52.20-53L43.20-53Q43.20-59.20 39.95-62.55Q36.70-65.90 30.80-65.90Q24.90-65.90 21.55-62.55Q18.20-59.20 18.20-53L18.20-20Q18.20-13.80 21.55-10.45Q24.90-7.10 30.80-7.10Q36.70-7.10 39.95-10.45Q43.20-13.80 43.20-20L52.20-20Q52.20-10.30 46.40-4.65Q40.60 1 30.80 1"/><path transform="translate(86 0)" d="M14.20 0L5 0L24-73L36.10-73L55 0L45.90 0L41.10-19.40L19-19.40L14.20 0M26.40-49.60L20.80-27L39.20-27L33.60-49.50Q32-55.90 31.10-60.20Q30.20-64.50 30-65.80Q29.80-64.50 28.90-60.20Q28-55.90 26.40-49.60"/><path transform="translate(172 0)" d="M30.40 1Q19.80 1 13.50-4.60Q7.20-10.20 7.20-20L16.20-20Q16.20-13.90 20.10-10.45Q24-7 30.40-7Q36.60-7 40.30-10.60Q44-14.20 44-20Q44-24.40 41.65-27.65Q39.30-30.90 34.90-32.10L23.80-35.20Q16.90-37.20 12.95-42.35Q9-47.50 9-54.50Q9-60.30 11.60-64.70Q14.20-69.10 18.90-71.55Q23.60-74 29.70-74Q35.90-74 40.65-71.55Q45.40-69.10 48.10-64.75Q50.80-60.40 50.80-54.70L41.80-54.70Q41.80-59.70 38.40-62.85Q35-66 29.70-66Q24.40-66 21.10-62.85Q17.80-59.70 17.80-54.70Q17.80-50.70 19.95-47.85Q22.10-45 26-43.90L37.40-40.70Q44.70-38.70 48.75-33.15Q52.80-27.60 52.80-20Q52.80-10.40 46.70-4.70Q40.60 1 30.40 1"/><path transform="translate(258 0)" d="M34.50 0L25.50 0L25.50-64.80L5.50-64.80L5.50-73L54.50-73L54.50-64.80L34.50-64.80"/><path transform="translate(430 0)" d="M30-26Q26.30-26 24.05-28.20Q21.80-30.40 21.80-33.90Q21.80-37.60 24.05-39.90Q26.30-42.20 30-42.20Q33.70-42.20 35.95-39.90Q38.20-37.60 38.20-33.90Q38.20-30.40 35.95-28.20Q33.70-26 30-26"/><path transform="translate(602 0)" d="M30.40 1Q19.80 1 13.50-4.60Q7.20-10.20 7.20-20L16.20-20Q16.20-13.90 20.10-10.45Q24-7 30.40-7Q36.60-7 40.30-10.60Q44-14.20 44-20Q44-24.40 41.65-27.65Q39.30-30.90 34.90-32.10L23.80-35.20Q16.90-37.20 12.95-42.35Q9-47.50 9-54.50Q9-60.30 11.60-64.70Q14.20-69.10 18.90-71.55Q23.60-74 29.70-74Q35.90-74 40.65-71.55Q45.40-69.10 48.10-64.75Q50.80-60.40 50.80-54.70L41.80-54.70Q41.80-59.70 38.40-62.85Q35-66 29.70-66Q24.40-66 21.10-62.85Q17.80-59.70 17.80-54.70Q17.80-50.70 19.95-47.85Q22.10-45 26-43.90L37.40-40.70Q44.70-38.70 48.75-33.15Q52.80-27.60 52.80-20Q52.80-10.40 46.70-4.70Q40.60 1 30.40 1"/><path transform="translate(688 0)" d="M18.30 0L9.30 0L9.30-73L18.30-73L18.30-41.80L41.70-41.80L41.70-73L50.70-73L50.70 0L41.70 0L41.70-33.60L18.30-33.60"/><path transform="translate(774 0)" d="M49.50 0L10.50 0L10.50-8.20L25.40-8.20L25.40-64.80L10.50-64.80L10.50-73L49.50-73L49.50-64.80L34.60-64.80L34.60-8.20L49.50-8.20"/><path transform="translate(860 0)" d="M18.20 0L9.20 0L9.20-73L32.70-73Q42.90-73 48.95-67.15Q55-61.30 55-51.50Q55-41.70 48.95-35.85Q42.90-30 32.70-30L18.20-30L18.20 0M18.20-64.90L18.20-38.10L32.70-38.10Q38.60-38.10 42.15-41.75Q45.70-45.40 45.70-51.50Q45.70-57.70 42.15-61.30Q38.60-64.90 32.70-64.90"/><path transform="translate(1032 0)" d="M30-26Q26.30-26 24.05-28.20Q21.80-30.40 21.80-33.90Q21.80-37.60 24.05-39.90Q26.30-42.20 30-42.20Q33.70-42.20 35.95-39.90Q38.20-37.60 38.20-33.90Q38.20-30.40 35.95-28.20Q33.70-26 30-26"/><path transform="translate(1204 0)" d="M18.20 0L9.30 0L9.30-73L31.80-73Q38.30-73 43.20-70.35Q48.10-67.70 50.80-63Q53.50-58.30 53.50-52Q53.50-44.60 49.70-39.30Q45.90-34 39.60-31.90L54.50 0L44.60 0L30.30-31L18.20-31L18.20 0M18.20-64.90L18.20-39.10L31.80-39.10Q37.40-39.10 40.80-42.65Q44.20-46.20 44.20-52Q44.20-57.90 40.80-61.40Q37.40-64.90 31.80-64.90"/><path transform="translate(1290 0)" d="M52 0L10 0L10-73L52-73L52-64.80L18.90-64.80L18.90-42.20L48.50-42.20L48.50-34.20L18.90-34.20L18.90-8.20L52-8.20"/><path transform="translate(1376 0)" d="M18.20 0L9.20 0L9.20-73L32.70-73Q42.90-73 48.95-67.15Q55-61.30 55-51.50Q55-41.70 48.95-35.85Q42.90-30 32.70-30L18.20-30L18.20 0M18.20-64.90L18.20-38.10L32.70-38.10Q38.60-38.10 42.15-41.75Q45.70-45.40 45.70-51.50Q45.70-57.70 42.15-61.30Q38.60-64.90 32.70-64.90"/><path transform="translate(1462 0)" d="M52 0L10 0L10-73L52-73L52-64.80L18.90-64.80L18.90-42.20L48.50-42.20L48.50-34.20L18.90-34.20L18.90-8.20L52-8.20"/><path transform="translate(1548 0)" d="M14.20 0L5 0L24-73L36.10-73L55 0L45.90 0L41.10-19.40L19-19.40L14.20 0M26.40-49.60L20.80-27L39.20-27L33.60-49.50Q32-55.90 31.10-60.20Q30.20-64.50 30-65.80Q29.80-64.50 28.90-60.20Q28-55.90 26.40-49.60"/><path transform="translate(1634 0)" d="M34.50 0L25.50 0L25.50-64.80L5.50-64.80L5.50-73L54.50-73L54.50-64.80L34.50-64.80"/></g>
</svg>
